<?xml version="1.0" encoding="utf-8" standalone="no"?>
<!DOCTYPE svg PUBLIC "-//W3C//DTD SVG 1.1//EN"
  "http://www.w3.org/Graphics/SVG/1.1/DTD/svg11.dtd">
<!-- Created with matplotlib (http://matplotlib.org/) -->
<svg height="363.6pt" version="1.1" viewBox="0 0 518.4 363.6" width="518.4pt" xmlns="http://www.w3.org/2000/svg" xmlns:xlink="http://www.w3.org/1999/xlink">
 <defs>
  <style type="text/css">
*{stroke-linecap:butt;stroke-linejoin:round;}
  </style>
 </defs>
 <g id="figure_1">
  <g id="patch_1">
   <path d="M 0 363.6 
L 518.4 363.6 
L 518.4 0 
L 0 0 
z
" style="fill:#ffffff;"/>
  </g>
  <g id="axes_1">
   <g id="patch_2">
    <path clip-path="url(#pe56996b0ce)" d="M 143.1432 92.727578 
Q 143.1432 94.72659 143.1432 95.719372 
" style="fill:none;stroke:#a8b4c0;stroke-linecap:round;stroke-width:0.9;"/>
    <path clip-path="url(#pe56996b0ce)" d="M 144.7432 92.519372 
L 143.1432 95.719372 
L 141.5432 92.519372 
L 144.7432 92.519372 
z
" style="fill:#a8b4c0;stroke:#a8b4c0;stroke-linecap:round;stroke-width:0.9;"/>
   </g>
   <g id="patch_3">
    <path clip-path="url(#pe56996b0ce)" d="M 265.68 92.727578 
Q 265.68 94.72659 265.68 95.719372 
" style="fill:none;stroke:#a8b4c0;stroke-linecap:round;stroke-width:0.9;"/>
    <path clip-path="url(#pe56996b0ce)" d="M 267.28 92.519372 
L 265.68 95.719372 
L 264.08 92.519372 
L 267.28 92.519372 
z
" style="fill:#a8b4c0;stroke:#a8b4c0;stroke-linecap:round;stroke-width:0.9;"/>
   </g>
   <g id="patch_4">
    <path clip-path="url(#pe56996b0ce)" d="M 388.2168 92.727578 
Q 388.2168 94.72659 388.2168 95.719372 
" style="fill:none;stroke:#a8b4c0;stroke-linecap:round;stroke-width:0.9;"/>
    <path clip-path="url(#pe56996b0ce)" d="M 389.8168 92.519372 
L 388.2168 95.719372 
L 386.6168 92.519372 
L 389.8168 92.519372 
z
" style="fill:#a8b4c0;stroke:#a8b4c0;stroke-linecap:round;stroke-width:0.9;"/>
   </g>
   <g id="patch_5">
    <path clip-path="url(#pe56996b0ce)" d="M 448.4808 117.085142 
Q 448.4808 122.585171 448.4808 126.967165 
" style="fill:none;stroke:#2e6fb6;stroke-linecap:round;"/>
    <path clip-path="url(#pe56996b0ce)" d="M 450.0808 123.767165 
L 448.4808 126.967165 
L 446.8808 123.767165 
L 450.0808 123.767165 
z
" style="fill:#2e6fb6;stroke:#2e6fb6;stroke-linecap:round;"/>
   </g>
   <g id="patch_6">
    <path clip-path="url(#pe56996b0ce)" d="M 82.8792 128.083066 
Q 82.8792 122.583037 82.8792 118.201043 
" style="fill:none;stroke:#14868b;stroke-linecap:round;"/>
    <path clip-path="url(#pe56996b0ce)" d="M 81.2792 121.401043 
L 82.8792 118.201043 
L 84.4792 121.401043 
L 81.2792 121.401043 
z
" style="fill:#14868b;stroke:#14868b;stroke-linecap:round;"/>
   </g>
   <g id="patch_7">
    <path clip-path="url(#pe56996b0ce)" d="M 448.4808 160.480802 
Q 448.4808 165.980831 448.4808 170.362825 
" style="fill:none;stroke:#2e6fb6;stroke-linecap:round;"/>
    <path clip-path="url(#pe56996b0ce)" d="M 450.0808 167.162825 
L 448.4808 170.362825 
L 446.8808 167.162825 
L 450.0808 167.162825 
z
" style="fill:#2e6fb6;stroke:#2e6fb6;stroke-linecap:round;"/>
   </g>
   <g id="patch_8">
    <path clip-path="url(#pe56996b0ce)" d="M 82.8792 171.478726 
Q 82.8792 165.978697 82.8792 161.596703 
" style="fill:none;stroke:#14868b;stroke-linecap:round;"/>
    <path clip-path="url(#pe56996b0ce)" d="M 81.2792 164.796703 
L 82.8792 161.596703 
L 84.4792 164.796703 
L 81.2792 164.796703 
z
" style="fill:#14868b;stroke:#14868b;stroke-linecap:round;"/>
   </g>
   <g id="patch_9">
    <path clip-path="url(#pe56996b0ce)" d="M 448.4808 203.876462 
Q 448.4808 209.376491 448.4808 213.758485 
" style="fill:none;stroke:#2e6fb6;stroke-linecap:round;"/>
    <path clip-path="url(#pe56996b0ce)" d="M 450.0808 210.558485 
L 448.4808 213.758485 
L 446.8808 210.558485 
L 450.0808 210.558485 
z
" style="fill:#2e6fb6;stroke:#2e6fb6;stroke-linecap:round;"/>
   </g>
   <g id="patch_10">
    <path clip-path="url(#pe56996b0ce)" d="M 82.8792 214.874386 
Q 82.8792 209.374357 82.8792 204.992363 
" style="fill:none;stroke:#14868b;stroke-linecap:round;"/>
    <path clip-path="url(#pe56996b0ce)" d="M 81.2792 208.192363 
L 82.8792 204.992363 
L 84.4792 208.192363 
L 81.2792 208.192363 
z
" style="fill:#14868b;stroke:#14868b;stroke-linecap:round;"/>
   </g>
   <g id="patch_11">
    <path clip-path="url(#pe56996b0ce)" d="M 448.4808 247.269046 
Q 448.4808 254.871307 448.4808 261.355534 
" style="fill:none;stroke:#2e6fb6;stroke-linecap:round;"/>
    <path clip-path="url(#pe56996b0ce)" d="M 450.0808 258.155534 
L 448.4808 261.355534 
L 446.8808 258.155534 
L 450.0808 258.155534 
z
" style="fill:#2e6fb6;stroke:#2e6fb6;stroke-linecap:round;"/>
   </g>
   <g id="patch_12">
    <path clip-path="url(#pe56996b0ce)" d="M 82.8792 262.472702 
Q 82.8792 254.870441 82.8792 248.386214 
" style="fill:none;stroke:#14868b;stroke-linecap:round;"/>
    <path clip-path="url(#pe56996b0ce)" d="M 81.2792 251.586214 
L 82.8792 248.386214 
L 84.4792 251.586214 
L 81.2792 251.586214 
z
" style="fill:#14868b;stroke:#14868b;stroke-linecap:round;"/>
   </g>
   <g id="patch_13">
    <path clip-path="url(#pe56996b0ce)" d="M 354.0672 277.311218 
Q 354.0672 269.708957 354.0672 263.112926 
" style="fill:none;stroke:#b95043;stroke-linecap:round;stroke-width:0.9;"/>
    <path clip-path="url(#pe56996b0ce)" d="M 352.4672 266.312926 
L 354.0672 263.112926 
L 355.6672 266.312926 
L 352.4672 266.312926 
z
" style="fill:#b95043;stroke:#b95043;stroke-linecap:round;stroke-width:0.9;"/>
   </g>
   <g id="patch_14">
    <path clip-path="url(#pe56996b0ce)" d="M 107.38656 92.907072 
L 178.89984 92.907072 
Q 183.72096 92.907072 183.72096 89.547408 
L 183.72096 63.510012 
Q 183.72096 60.150348 178.89984 60.150348 
L 107.38656 60.150348 
Q 102.56544 60.150348 102.56544 63.510012 
L 102.56544 89.547408 
Q 102.56544 92.907072 107.38656 92.907072 
z
" style="fill:#eaf2fa;stroke:#2e6fb6;stroke-linejoin:miter;"/>
   </g>
   <g id="patch_15">
    <path clip-path="url(#pe56996b0ce)" d="M 229.92336 92.907072 
L 301.43664 92.907072 
Q 306.25776 92.907072 306.25776 89.547408 
L 306.25776 63.510012 
Q 306.25776 60.150348 301.43664 60.150348 
L 229.92336 60.150348 
Q 225.10224 60.150348 225.10224 63.510012 
L 225.10224 89.547408 
Q 225.10224 92.907072 229.92336 92.907072 
z
" style="fill:#e7f4f3;stroke:#14868b;stroke-linejoin:miter;"/>
   </g>
   <g id="patch_16">
    <path clip-path="url(#pe56996b0ce)" d="M 352.46016 92.907072 
L 423.97344 92.907072 
Q 428.79456 92.907072 428.79456 89.547408 
L 428.79456 63.510012 
Q 428.79456 60.150348 423.97344 60.150348 
L 352.46016 60.150348 
Q 347.63904 60.150348 347.63904 63.510012 
L 347.63904 89.547408 
Q 347.63904 92.907072 352.46016 92.907072 
z
" style="fill:#f1ecf8;stroke:#7156a4;stroke-linejoin:miter;"/>
   </g>
   <g id="patch_17">
    <path clip-path="url(#pe56996b0ce)" d="M 99.35136 132.103152 
L 432.00864 132.103152 
Q 436.82976 132.103152 436.82976 128.743488 
L 436.82976 102.706092 
Q 436.82976 99.346428 432.00864 99.346428 
L 99.35136 99.346428 
Q 94.53024 99.346428 94.53024 102.706092 
L 94.53024 128.743488 
Q 94.53024 132.103152 99.35136 132.103152 
z
" style="fill:#eaf2fa;stroke:#2e6fb6;stroke-linejoin:miter;"/>
   </g>
   <g id="patch_18">
    <path clip-path="url(#pe56996b0ce)" d="M 103.36896 127.903572 
L 170.86464 127.903572 
Q 175.68576 127.903572 175.68576 124.543908 
L 175.68576 106.905672 
Q 175.68576 103.546008 170.86464 103.546008 
L 103.36896 103.546008 
Q 98.54784 103.546008 98.54784 106.905672 
L 98.54784 124.543908 
Q 98.54784 127.903572 103.36896 127.903572 
z
" style="fill:#ffffff;stroke:#2e6fb6;stroke-linejoin:miter;stroke-width:0.8;"/>
   </g>
   <g id="patch_19">
    <path clip-path="url(#pe56996b0ce)" d="M 99.35136 175.498812 
L 432.00864 175.498812 
Q 436.82976 175.498812 436.82976 172.139148 
L 436.82976 146.101752 
Q 436.82976 142.742088 432.00864 142.742088 
L 99.35136 142.742088 
Q 94.53024 142.742088 94.53024 146.101752 
L 94.53024 172.139148 
Q 94.53024 175.498812 99.35136 175.498812 
z
" style="fill:#f1ecf8;stroke:#7156a4;stroke-linejoin:miter;"/>
   </g>
   <g id="patch_20">
    <path clip-path="url(#pe56996b0ce)" d="M 103.36896 171.299232 
L 170.86464 171.299232 
Q 175.68576 171.299232 175.68576 167.939568 
L 175.68576 150.301332 
Q 175.68576 146.941668 170.86464 146.941668 
L 103.36896 146.941668 
Q 98.54784 146.941668 98.54784 150.301332 
L 98.54784 167.939568 
Q 98.54784 171.299232 103.36896 171.299232 
z
" style="fill:#ffffff;stroke:#7156a4;stroke-linejoin:miter;stroke-width:0.8;"/>
   </g>
   <g id="patch_21">
    <path clip-path="url(#pe56996b0ce)" d="M 99.35136 218.894472 
L 432.00864 218.894472 
Q 436.82976 218.894472 436.82976 215.534808 
L 436.82976 189.497412 
Q 436.82976 186.137748 432.00864 186.137748 
L 99.35136 186.137748 
Q 94.53024 186.137748 94.53024 189.497412 
L 94.53024 215.534808 
Q 94.53024 218.894472 99.35136 218.894472 
z
" style="fill:#fff3d8;stroke:#b97816;stroke-linejoin:miter;"/>
   </g>
   <g id="patch_22">
    <path clip-path="url(#pe56996b0ce)" d="M 103.36896 214.694892 
L 170.86464 214.694892 
Q 175.68576 214.694892 175.68576 211.335228 
L 175.68576 193.696992 
Q 175.68576 190.337328 170.86464 190.337328 
L 103.36896 190.337328 
Q 98.54784 190.337328 98.54784 193.696992 
L 98.54784 211.335228 
Q 98.54784 214.694892 103.36896 214.694892 
z
" style="fill:#ffffff;stroke:#b97816;stroke-linejoin:miter;stroke-width:0.8;"/>
   </g>
   <g id="patch_23">
    <path clip-path="url(#pe56996b0ce)" d="M 99.35136 262.290132 
L 432.00864 262.290132 
Q 436.82976 262.290132 436.82976 258.930468 
L 436.82976 232.893072 
Q 436.82976 229.533408 432.00864 229.533408 
L 99.35136 229.533408 
Q 94.53024 229.533408 94.53024 232.893072 
L 94.53024 258.930468 
Q 94.53024 262.290132 99.35136 262.290132 
z
" style="fill:#e7f4f3;stroke:#14868b;stroke-linejoin:miter;"/>
   </g>
   <g id="patch_24">
    <path clip-path="url(#pe56996b0ce)" d="M 103.36896 258.090552 
L 170.86464 258.090552 
Q 175.68576 258.090552 175.68576 254.730888 
L 175.68576 237.092652 
Q 175.68576 233.732988 170.86464 233.732988 
L 103.36896 233.732988 
Q 98.54784 233.732988 98.54784 237.092652 
L 98.54784 254.730888 
Q 98.54784 258.090552 103.36896 258.090552 
z
" style="fill:#ffffff;stroke:#14868b;stroke-linejoin:miter;stroke-width:0.8;"/>
   </g>
   <g id="patch_25">
    <path clip-path="url(#pe56996b0ce)" d="M 99.35136 309.885372 
L 299.42784 309.885372 
Q 304.24896 309.885372 304.24896 306.525708 
L 304.24896 280.488312 
Q 304.24896 277.128648 299.42784 277.128648 
L 99.35136 277.128648 
Q 94.53024 277.128648 94.53024 280.488312 
L 94.53024 306.525708 
Q 94.53024 309.885372 99.35136 309.885372 
z
" style="fill:#eef2f5;stroke:#5e7084;stroke-linejoin:miter;"/>
   </g>
   <g id="patch_26">
    <path clip-path="url(#pe56996b0ce)" d="M 316.30176 309.885372 
L 432.00864 309.885372 
Q 436.82976 309.885372 436.82976 306.525708 
L 436.82976 280.488312 
Q 436.82976 277.128648 432.00864 277.128648 
L 316.30176 277.128648 
Q 311.48064 277.128648 311.48064 280.488312 
L 311.48064 306.525708 
Q 311.48064 309.885372 316.30176 309.885372 
z
" style="fill:#fbecea;stroke:#b95043;stroke-linejoin:miter;"/>
   </g>
   <g id="text_1">
    <text style="fill:#20364d;font-family:Arial;font-size:9.5px;font-style:normal;font-weight:bold;text-anchor:start;" transform="rotate(-0, 69.62112, 57.431222)" x="69.62112" y="57.431222">B</text>
   </g>
   <g id="text_2">
    <text style="fill:#20364d;font-family:Arial;font-size:7.6px;font-style:normal;font-weight:bold;text-anchor:middle;" transform="rotate(-0, 143.1432, 69.973625)" x="143.1432" y="69.973625">Teacher workspace</text>
   </g>
   <g id="text_3">
    <text style="fill:#66788a;font-family:Arial;font-size:6.1px;font-style:normal;font-weight:normal;" transform="translate(114.326895 78.76083)">design · orchestrate ·</text>
    <text style="fill:#66788a;font-family:Arial;font-size:6.1px;font-style:normal;font-weight:normal;" transform="translate(129.239012 85.022232)">adjudicate</text>
   </g>
   <g id="text_4">
    <text style="fill:#20364d;font-family:Arial;font-size:7.6px;font-style:normal;font-weight:bold;text-anchor:middle;" transform="rotate(-0, 265.68, 70.019938)" x="265.68" y="70.019938">Student workspace</text>
   </g>
   <g id="text_5">
    <text style="fill:#66788a;font-family:Arial;font-size:6.1px;font-style:normal;font-weight:normal;" transform="translate(237.715313 78.869486)">learn · create · verify</text>
    <text style="fill:#66788a;font-family:Arial;font-size:6.1px;font-style:normal;font-weight:normal;" transform="translate(254.834391 85.130888)">· submit</text>
   </g>
   <g id="text_6">
    <text style="fill:#20364d;font-family:Arial;font-size:7.6px;font-style:normal;font-weight:bold;text-anchor:middle;" transform="rotate(-0, 388.2168, 69.973625)" x="388.2168" y="69.973625">Audit / research view</text>
   </g>
   <g id="text_7">
    <text style="fill:#66788a;font-family:Arial;font-size:6.1px;font-style:normal;font-weight:normal;" transform="translate(363.131027 78.76083)">trace · reproduce ·</text>
    <text style="fill:#66788a;font-family:Arial;font-size:6.1px;font-style:normal;font-weight:normal;" transform="translate(377.704784 84.950748)">analyse</text>
   </g>
   <g id="text_8">
    <text style="fill:#20364d;font-family:Arial;font-size:7.2px;font-style:normal;font-weight:bold;" transform="translate(114.306863 113.987036)">Experience &amp;</text>
    <text style="fill:#20364d;font-family:Arial;font-size:7.2px;font-style:normal;font-weight:bold;" transform="translate(118.715738 121.283044)">interaction</text>
   </g>
   <g id="text_9">
    <text style="fill:#20364d;font-family:Arial;font-size:6.2px;font-style:normal;font-weight:normal;text-anchor:start;" transform="rotate(-0, 183.3192, 117.330978)" x="183.3192" y="117.330978">Next.js interfaces  ·  OpenMAIC player/canvas  ·  companion studio  ·  realtime whiteboard</text>
   </g>
   <g id="text_10">
    <text style="fill:#20364d;font-family:Arial;font-size:7.2px;font-style:normal;font-weight:bold;" transform="translate(117.518738 157.338821)">Application</text>
    <text style="fill:#20364d;font-family:Arial;font-size:7.2px;font-style:normal;font-weight:bold;" transform="translate(114.113925 164.634829)">orchestration</text>
   </g>
   <g id="text_11">
    <text style="fill:#20364d;font-family:Arial;font-size:6.2px;font-style:normal;font-weight:normal;" transform="translate(183.3192 157.504895)">course-design Agent  ·  durable generation worker  ·  classroom runtime  ·  companion runtime  ·</text>
    <text style="fill:#20364d;font-family:Arial;font-size:6.2px;font-style:normal;font-weight:normal;" transform="translate(183.3192 163.868943)">teacher support engine</text>
   </g>
   <g id="text_12">
    <text style="fill:#20364d;font-family:Arial;font-size:7.2px;font-style:normal;font-weight:bold;text-anchor:middle;" transform="rotate(-0, 137.1168, 204.335235)" x="137.1168" y="204.335235">Pedagogical policy</text>
   </g>
   <g id="text_13">
    <text style="fill:#20364d;font-family:Arial;font-size:6.2px;font-style:normal;font-weight:normal;" transform="translate(183.3192 200.900555)">curriculum roles  ·  instructional sequence  ·  prerequisite router  ·  stage policy  ·</text>
    <text style="fill:#20364d;font-family:Arial;font-size:6.2px;font-style:normal;font-weight:normal;" transform="translate(183.3192 207.264603)">reversible operation policy</text>
   </g>
   <g id="text_14">
    <text style="fill:#20364d;font-family:Arial;font-size:7.2px;font-style:normal;font-weight:bold;" transform="translate(103.910175 244.130141)">Evidence &amp; domain</text>
    <text style="fill:#20364d;font-family:Arial;font-size:7.2px;font-style:normal;font-weight:bold;" transform="translate(128.713613 251.426149)">state</text>
   </g>
   <g id="text_15">
    <text style="fill:#20364d;font-family:Arial;font-size:6.2px;font-style:normal;font-weight:normal;" transform="translate(183.3192 244.406652)">learning events  ·  typed evidence  ·  artifact snapshots  ·  AI contributions  ·  signals  ·</text>
    <text style="fill:#20364d;font-family:Arial;font-size:6.2px;font-style:normal;font-weight:normal;" transform="translate(183.3192 250.7707)">directives  ·  evaluations</text>
   </g>
   <g id="text_16">
    <text style="fill:#20364d;font-family:Arial;font-size:7.4px;font-style:normal;font-weight:bold;text-anchor:middle;" transform="rotate(-0, 199.3896, 286.900081)" x="199.3896" y="286.900081">Platform services</text>
   </g>
   <g id="text_17">
    <text style="fill:#66788a;font-family:Arial;font-size:6.15px;font-style:normal;font-weight:normal;" transform="translate(113.095971 295.7655)">PostgreSQL · Redis · WebSocket/tldraw sync · persistent files ·</text>
    <text style="fill:#66788a;font-family:Arial;font-size:6.15px;font-style:normal;font-weight:normal;" transform="translate(160.25494 302.078225)">Nginx · monitoring · backups</text>
   </g>
   <g id="text_18">
    <text style="fill:#20364d;font-family:Arial;font-size:7.4px;font-style:normal;font-weight:bold;text-anchor:middle;" transform="rotate(-0, 374.1552, 286.900081)" x="374.1552" y="286.900081">External model services</text>
   </g>
   <g id="text_19">
    <text style="fill:#66788a;font-family:Arial;font-size:6.15px;font-style:normal;font-weight:normal;" transform="translate(328.361243 295.763578)">LLM · image/video · TTS · search</text>
    <text style="fill:#66788a;font-family:Arial;font-size:6.15px;font-style:normal;font-weight:normal;" transform="translate(323.567126 302.076303)">provider credentials encrypted at rest</text>
   </g>
   <g id="text_20">
    <g id="patch_27">
     <path d="M 442.389347 126.593424 
L 474.660253 126.593424 
L 474.660253 118.574784 
L 442.389347 118.574784 
z
" style="fill:#ffffff;"/>
    </g>
    <text style="fill:#66788a;font-family:Arial;font-size:6.1px;font-style:normal;font-weight:normal;text-anchor:middle;" transform="rotate(-0, 458.5248, 124.161049)" x="458.5248" y="124.161049">commands</text>
   </g>
   <g id="text_21">
    <g id="patch_28">
     <path d="M 60.612378 126.593424 
L 87.468582 126.593424 
L 87.468582 118.574784 
L 60.612378 118.574784 
z
" style="fill:#ffffff;"/>
    </g>
    <text style="fill:#66788a;font-family:Arial;font-size:6.1px;font-style:normal;font-weight:normal;text-anchor:middle;" transform="rotate(-0, 74.04048, 124.161049)" x="74.04048" y="124.161049">evidence</text>
   </g>
   <g id="text_22">
    <g id="patch_29">
     <path d="M 442.389347 169.989084 
L 474.660253 169.989084 
L 474.660253 161.970444 
L 442.389347 161.970444 
z
" style="fill:#ffffff;"/>
    </g>
    <text style="fill:#66788a;font-family:Arial;font-size:6.1px;font-style:normal;font-weight:normal;text-anchor:middle;" transform="rotate(-0, 458.5248, 167.556709)" x="458.5248" y="167.556709">commands</text>
   </g>
   <g id="text_23">
    <g id="patch_30">
     <path d="M 60.612378 169.989084 
L 87.468582 169.989084 
L 87.468582 161.970444 
L 60.612378 161.970444 
z
" style="fill:#ffffff;"/>
    </g>
    <text style="fill:#66788a;font-family:Arial;font-size:6.1px;font-style:normal;font-weight:normal;text-anchor:middle;" transform="rotate(-0, 74.04048, 167.556709)" x="74.04048" y="167.556709">evidence</text>
   </g>
   <g id="text_24">
    <g id="patch_31">
     <path d="M 442.389347 213.384744 
L 474.660253 213.384744 
L 474.660253 205.366104 
L 442.389347 205.366104 
z
" style="fill:#ffffff;"/>
    </g>
    <text style="fill:#66788a;font-family:Arial;font-size:6.1px;font-style:normal;font-weight:normal;text-anchor:middle;" transform="rotate(-0, 458.5248, 210.952369)" x="458.5248" y="210.952369">commands</text>
   </g>
   <g id="text_25">
    <g id="patch_32">
     <path d="M 60.612378 213.384744 
L 87.468582 213.384744 
L 87.468582 205.366104 
L 60.612378 205.366104 
z
" style="fill:#ffffff;"/>
    </g>
    <text style="fill:#66788a;font-family:Arial;font-size:6.1px;font-style:normal;font-weight:normal;text-anchor:middle;" transform="rotate(-0, 74.04048, 210.952369)" x="74.04048" y="210.952369">evidence</text>
   </g>
   <g id="text_26">
    <g id="patch_33">
     <path d="M 442.389347 258.880194 
L 474.660253 258.880194 
L 474.660253 250.861554 
L 442.389347 250.861554 
z
" style="fill:#ffffff;"/>
    </g>
    <text style="fill:#66788a;font-family:Arial;font-size:6.1px;font-style:normal;font-weight:normal;text-anchor:middle;" transform="rotate(-0, 458.5248, 256.447819)" x="458.5248" y="256.447819">commands</text>
   </g>
   <g id="text_27">
    <g id="patch_34">
     <path d="M 60.612378 258.880194 
L 87.468582 258.880194 
L 87.468582 250.861554 
L 60.612378 250.861554 
z
" style="fill:#ffffff;"/>
    </g>
    <text style="fill:#66788a;font-family:Arial;font-size:6.1px;font-style:normal;font-weight:normal;text-anchor:middle;" transform="rotate(-0, 74.04048, 256.447819)" x="74.04048" y="256.447819">evidence</text>
   </g>
   <g id="text_28">
    <text style="fill:#66788a;font-family:Arial;font-size:6.3px;font-style:normal;font-weight:normal;text-anchor:middle;" transform="rotate(-0, 265.68, 321.83607)" x="265.68" y="321.83607">Modular monolith: pedagogical constraints are executable policies inside one auditable application boundary</text>
   </g>
  </g>
 </g>
 <defs>
  <clipPath id="pe56996b0ce">
   <rect height="279.972" width="401.76" x="64.8" y="43.632"/>
  </clipPath>
 </defs>
</svg>
